{
	"asset":{
		"generator":"Khronos glTF Blender I/O v4.5.48",
		"version":"2.0"
	},
	"scene":0,
	"scenes":[
		{
			"name":"Scene",
			"nodes":[
				0,
				1
			]
		}
	],
	"nodes":[
		{
			"mesh":0,
			"name":"Cube"
		},
		{
			"mesh":1,
			"name":"Button",
			"translation":[
				0,
				-0.6365686655044556,
				0
			]
		}
	],
	"materials":[
		{
			"doubleSided":true,
			"name":"Material.002",
			"pbrMetallicRoughness":{
				"baseColorFactor":[
					0.01179857924580574,
					0.01179857924580574,
					0.01179857924580574,
					1
				],
				"metallicFactor":0,
				"roughnessFactor":0.5
			}
		},
		{
			"doubleSided":true,
			"name":"Material.001",
			"pbrMetallicRoughness":{
				"baseColorFactor":[
					0.8002997636795044,
					0,
					0,
					1
				],
				"metallicFactor":0,
				"roughnessFactor":0.5
			}
		}
	],
	"meshes":[
		{
			"name":"Cube.001",
			"primitives":[
				{
					"attributes":{
						"POSITION":0,
						"NORMAL":1,
						"TEXCOORD_0":2,
						"TANGENT":3
					},
					"indices":4,
					"material":0
				}
			]
		},
		{
			"name":"Cube.002",
			"primitives":[
				{
					"attributes":{
						"POSITION":5,
						"NORMAL":6,
						"TEXCOORD_0":7,
						"TANGENT":8
					},
					"indices":9,
					"material":1
				}
			]
		}
	],
	"accessors":[
		{
			"bufferView":0,
			"componentType":5126,
			"count":24,
			"max":[
				2.408160924911499,
				-0.438007116317749,
				2.408160924911499
			],
			"min":[
				-2.408160924911499,
				-1.8227945566177368,
				-2.408160924911499
			],
			"type":"VEC3"
		},
		{
			"bufferView":1,
			"componentType":5126,
			"count":24,
			"type":"VEC3"
		},
		{
			"bufferView":2,
			"componentType":5126,
			"count":24,
			"type":"VEC2"
		},
		{
			"bufferView":3,
			"componentType":5126,
			"count":24,
			"type":"VEC4"
		},
		{
			"bufferView":4,
			"componentType":5123,
			"count":36,
			"type":"SCALAR"
		},
		{
			"bufferView":5,
			"componentType":5126,
			"count":54,
			"max":[
				2.0011749267578125,
				1.152461051940918,
				2.0011749267578125
			],
			"min":[
				-2.0011749267578125,
				-0.4222579598426819,
				-2.0011749267578125
			],
			"type":"VEC3"
		},
		{
			"bufferView":6,
			"componentType":5126,
			"count":54,
			"type":"VEC3"
		},
		{
			"bufferView":7,
			"componentType":5126,
			"count":54,
			"type":"VEC2"
		},
		{
			"bufferView":8,
			"componentType":5126,
			"count":54,
			"type":"VEC4"
		},
		{
			"bufferView":9,
			"componentType":5123,
			"count":108,
			"type":"SCALAR"
		}
	],
	"bufferViews":[
		{
			"buffer":0,
			"byteLength":288,
			"byteOffset":0,
			"target":34962
		},
		{
			"buffer":0,
			"byteLength":288,
			"byteOffset":288,
			"target":34962
		},
		{
			"buffer":0,
			"byteLength":192,
			"byteOffset":576,
			"target":34962
		},
		{
			"buffer":0,
			"byteLength":384,
			"byteOffset":768,
			"target":34962
		},
		{
			"buffer":0,
			"byteLength":72,
			"byteOffset":1152,
			"target":34963
		},
		{
			"buffer":0,
			"byteLength":648,
			"byteOffset":1224,
			"target":34962
		},
		{
			"buffer":0,
			"byteLength":648,
			"byteOffset":1872,
			"target":34962
		},
		{
			"buffer":0,
			"byteLength":432,
			"byteOffset":2520,
			"target":34962
		},
		{
			"buffer":0,
			"byteLength":864,
			"byteOffset":2952,
			"target":34962
		},
		{
			"buffer":0,
			"byteLength":216,
			"byteOffset":3816,
			"target":34963
		}
	],
	"buffers":[
		{
			"byteLength":4032,
			"uri":"Button-b749edc7cba582ab0ee6e471cca9719f.bin"
		}
	]
}
