{
	"asset":{
		"generator":"Khronos glTF Blender I/O v4.5.48",
		"version":"2.0"
	},
	"scene":0,
	"scenes":[
		{
			"name":"Scene",
			"nodes":[
				0,
				2
			]
		}
	],
	"nodes":[
		{
			"mesh":0,
			"name":"Cylinder"
		},
		{
			"mesh":1,
			"name":"Cube.001",
			"translation":[
				0,
				-0.05561177432537079,
				0
			]
		},
		{
			"children":[
				1
			],
			"mesh":2,
			"name":"Nidle",
			"translation":[
				0,
				0.07893428951501846,
				0
			]
		}
	],
	"materials":[
		{
			"doubleSided":true,
			"name":"Material.003",
			"pbrMetallicRoughness":{
				"baseColorFactor":[
					0.800000011920929,
					0.800000011920929,
					0.800000011920929,
					1
				],
				"metallicFactor":0,
				"roughnessFactor":0.5
			}
		},
		{
			"doubleSided":true,
			"name":"Material.001",
			"pbrMetallicRoughness":{
				"baseColorFactor":[
					0.8002194166183472,
					0,
					0.009541093371808529,
					1
				],
				"metallicFactor":0,
				"roughnessFactor":0.5
			}
		},
		{
			"doubleSided":true,
			"name":"Material.002",
			"pbrMetallicRoughness":{
				"baseColorFactor":[
					0.12331530451774597,
					0.12331530451774597,
					0.12331530451774597,
					1
				],
				"roughnessFactor":0.5
			}
		}
	],
	"meshes":[
		{
			"name":"Cylinder",
			"primitives":[
				{
					"attributes":{
						"POSITION":0,
						"NORMAL":1,
						"TEXCOORD_0":2
					},
					"indices":3,
					"material":0
				}
			]
		},
		{
			"name":"Cube.002",
			"primitives":[
				{
					"attributes":{
						"POSITION":4,
						"NORMAL":5,
						"TEXCOORD_0":6
					},
					"indices":7,
					"material":1
				}
			]
		},
		{
			"name":"Cube.001",
			"primitives":[
				{
					"attributes":{
						"POSITION":8,
						"NORMAL":9,
						"TEXCOORD_0":10,
						"TANGENT":11
					},
					"indices":12,
					"material":2
				}
			]
		}
	],
	"accessors":[
		{
			"bufferView":0,
			"componentType":5126,
			"count":200,
			"max":[
				2.379923105239868,
				0.08829011023044586,
				2.379923105239868
			],
			"min":[
				-2.379923105239868,
				-0.05411328747868538,
				-2.380244016647339
			],
			"type":"VEC3"
		},
		{
			"bufferView":1,
			"componentType":5126,
			"count":200,
			"type":"VEC3"
		},
		{
			"bufferView":2,
			"componentType":5126,
			"count":200,
			"type":"VEC2"
		},
		{
			"bufferView":3,
			"componentType":5123,
			"count":384,
			"type":"SCALAR"
		},
		{
			"bufferView":4,
			"componentType":5126,
			"count":17,
			"max":[
				2.1482980251312256,
				0.04957537353038788,
				2.1482980251312256
			],
			"min":[
				-2.1482980251312256,
				0.04957537353038788,
				0
			],
			"type":"VEC3"
		},
		{
			"bufferView":5,
			"componentType":5126,
			"count":17,
			"type":"VEC3"
		},
		{
			"bufferView":6,
			"componentType":5126,
			"count":17,
			"type":"VEC2"
		},
		{
			"bufferView":7,
			"componentType":5123,
			"count":45,
			"type":"SCALAR"
		},
		{
			"bufferView":8,
			"componentType":5126,
			"count":24,
			"max":[
				0.11997276544570923,
				0.11997276544570923,
				0.11997276544570923
			],
			"min":[
				-2.184967279434204,
				-0.11997276544570923,
				-0.11997276544570923
			],
			"type":"VEC3"
		},
		{
			"bufferView":9,
			"componentType":5126,
			"count":24,
			"type":"VEC3"
		},
		{
			"bufferView":10,
			"componentType":5126,
			"count":24,
			"type":"VEC2"
		},
		{
			"bufferView":11,
			"componentType":5126,
			"count":24,
			"type":"VEC4"
		},
		{
			"bufferView":12,
			"componentType":5123,
			"count":36,
			"type":"SCALAR"
		}
	],
	"bufferViews":[
		{
			"buffer":0,
			"byteLength":2400,
			"byteOffset":0,
			"target":34962
		},
		{
			"buffer":0,
			"byteLength":2400,
			"byteOffset":2400,
			"target":34962
		},
		{
			"buffer":0,
			"byteLength":1600,
			"byteOffset":4800,
			"target":34962
		},
		{
			"buffer":0,
			"byteLength":768,
			"byteOffset":6400,
			"target":34963
		},
		{
			"buffer":0,
			"byteLength":204,
			"byteOffset":7168,
			"target":34962
		},
		{
			"buffer":0,
			"byteLength":204,
			"byteOffset":7372,
			"target":34962
		},
		{
			"buffer":0,
			"byteLength":136,
			"byteOffset":7576,
			"target":34962
		},
		{
			"buffer":0,
			"byteLength":90,
			"byteOffset":7712,
			"target":34963
		},
		{
			"buffer":0,
			"byteLength":288,
			"byteOffset":7804,
			"target":34962
		},
		{
			"buffer":0,
			"byteLength":288,
			"byteOffset":8092,
			"target":34962
		},
		{
			"buffer":0,
			"byteLength":192,
			"byteOffset":8380,
			"target":34962
		},
		{
			"buffer":0,
			"byteLength":384,
			"byteOffset":8572,
			"target":34962
		},
		{
			"buffer":0,
			"byteLength":72,
			"byteOffset":8956,
			"target":34963
		}
	],
	"buffers":[
		{
			"byteLength":9028,
			"uri":"Gauge-5349845864f12a0bd7c324094fdcca86.bin"
		}
	]
}
