{
	"asset":{
		"generator":"Khronos glTF Blender I/O v4.5.48",
		"version":"2.0"
	},
	"scene":0,
	"scenes":[
		{
			"name":"Scene",
			"nodes":[
				1
			]
		}
	],
	"nodes":[
		{
			"mesh":0,
			"name":"Cube"
		},
		{
			"children":[
				0
			],
			"mesh":1,
			"name":"LED",
			"scale":[
				0.3265911340713501,
				0.3265911340713501,
				0.3265911340713501
			]
		}
	],
	"materials":[
		{
			"doubleSided":true,
			"name":"Material.001",
			"pbrMetallicRoughness":{
				"baseColorFactor":[
					0.590983510017395,
					0.590983510017395,
					0.590983510017395,
					1
				],
				"roughnessFactor":0.5
			}
		},
		{
			"doubleSided":true,
			"name":"LED_Mat",
			"pbrMetallicRoughness":{
				"baseColorFactor":[
					0.800000011920929,
					0.800000011920929,
					0.800000011920929,
					1
				],
				"metallicFactor":0,
				"roughnessFactor":0.5
			}
		}
	],
	"meshes":[
		{
			"name":"Cube.001",
			"primitives":[
				{
					"attributes":{
						"POSITION":0,
						"NORMAL":1,
						"TEXCOORD_0":2,
						"TANGENT":3
					},
					"indices":4,
					"material":0
				}
			]
		},
		{
			"name":"Sphere",
			"primitives":[
				{
					"attributes":{
						"POSITION":5,
						"NORMAL":6,
						"TEXCOORD_0":7,
						"TANGENT":8
					},
					"indices":9,
					"material":1
				}
			]
		}
	],
	"accessors":[
		{
			"bufferView":0,
			"componentType":5126,
			"count":48,
			"max":[
				0.7072426676750183,
				-1.8276809453964233,
				0.10485561192035675
			],
			"min":[
				-0.7001557946205139,
				-5.585218906402588,
				-0.10485617816448212
			],
			"type":"VEC3"
		},
		{
			"bufferView":1,
			"componentType":5126,
			"count":48,
			"type":"VEC3"
		},
		{
			"bufferView":2,
			"componentType":5126,
			"count":48,
			"type":"VEC2"
		},
		{
			"bufferView":3,
			"componentType":5126,
			"count":48,
			"type":"VEC4"
		},
		{
			"bufferView":4,
			"componentType":5123,
			"count":72,
			"type":"SCALAR"
		},
		{
			"bufferView":5,
			"componentType":5126,
			"count":427,
			"max":[
				1.2202743291854858,
				1,
				1.2202739715576172
			],
			"min":[
				-1.2202736139297485,
				-2.1756792068481445,
				-1.220274567604065
			],
			"type":"VEC3"
		},
		{
			"bufferView":6,
			"componentType":5126,
			"count":427,
			"type":"VEC3"
		},
		{
			"bufferView":7,
			"componentType":5126,
			"count":427,
			"type":"VEC2"
		},
		{
			"bufferView":8,
			"componentType":5126,
			"count":427,
			"type":"VEC4"
		},
		{
			"bufferView":9,
			"componentType":5123,
			"count":2112,
			"type":"SCALAR"
		}
	],
	"bufferViews":[
		{
			"buffer":0,
			"byteLength":576,
			"byteOffset":0,
			"target":34962
		},
		{
			"buffer":0,
			"byteLength":576,
			"byteOffset":576,
			"target":34962
		},
		{
			"buffer":0,
			"byteLength":384,
			"byteOffset":1152,
			"target":34962
		},
		{
			"buffer":0,
			"byteLength":768,
			"byteOffset":1536,
			"target":34962
		},
		{
			"buffer":0,
			"byteLength":144,
			"byteOffset":2304,
			"target":34963
		},
		{
			"buffer":0,
			"byteLength":5124,
			"byteOffset":2448,
			"target":34962
		},
		{
			"buffer":0,
			"byteLength":5124,
			"byteOffset":7572,
			"target":34962
		},
		{
			"buffer":0,
			"byteLength":3416,
			"byteOffset":12696,
			"target":34962
		},
		{
			"buffer":0,
			"byteLength":6832,
			"byteOffset":16112,
			"target":34962
		},
		{
			"buffer":0,
			"byteLength":4224,
			"byteOffset":22944,
			"target":34963
		}
	],
	"buffers":[
		{
			"byteLength":27168,
			"uri":"LED-e5cc7ef83537c05daf1a0f8e12c5329c.bin"
		}
	]
}
