{
	"asset":{
		"generator":"Khronos glTF Blender I/O v4.5.48",
		"version":"2.0"
	},
	"scene":0,
	"scenes":[
		{
			"name":"Scene",
			"nodes":[
				0,
				1,
				2
			]
		}
	],
	"nodes":[
		{
			"mesh":0,
			"name":"Plane"
		},
		{
			"mesh":1,
			"name":"Sphere",
			"scale":[
				0.060597121715545654,
				0.060597121715545654,
				0.060597121715545654
			],
			"translation":[
				0,
				0.4307430386543274,
				0.8314715027809143
			]
		},
		{
			"mesh":2,
			"name":"Suzanne",
			"rotation":[
				0,
				0.7071068286895752,
				0,
				0.7071068286895752
			],
			"scale":[
				0.060597121715545654,
				0.060597121715545654,
				0.060597121715545654
			],
			"translation":[
				0,
				0.41596537828445435,
				1.0531487464904785
			]
		}
	],
	"animations":[
		{
			"channels":[
				{
					"sampler":0,
					"target":{
						"node":0,
						"path":"scale"
					}
				}
			],
			"name":"PlaneAction",
			"samplers":[
				{
					"input":19,
					"interpolation":"LINEAR",
					"output":20
				}
			]
		},
		{
			"channels":[
				{
					"sampler":0,
					"target":{
						"node":2,
						"path":"translation"
					}
				},
				{
					"sampler":1,
					"target":{
						"node":2,
						"path":"scale"
					}
				}
			],
			"name":"SphereAction",
			"samplers":[
				{
					"input":21,
					"interpolation":"LINEAR",
					"output":22
				},
				{
					"input":21,
					"interpolation":"LINEAR",
					"output":23
				}
			]
		}
	],
	"materials":[
		{
			"doubleSided":true,
			"name":"Material.001",
			"pbrMetallicRoughness":{
				"baseColorFactor":[
					0.8000156879425049,
					0.004338663537055254,
					0.006705425679683685,
					1
				],
				"roughnessFactor":0.5
			}
		},
		{
			"doubleSided":true,
			"name":"Material.002",
			"pbrMetallicRoughness":{
				"baseColorFactor":[
					0.009975122287869453,
					0.005000465549528599,
					0.8004492521286011,
					1
				],
				"metallicFactor":0,
				"roughnessFactor":0.5
			}
		}
	],
	"meshes":[
		{
			"name":"Plane",
			"primitives":[
				{
					"attributes":{
						"POSITION":0,
						"NORMAL":1,
						"TEXCOORD_0":2,
						"TANGENT":3
					},
					"indices":4
				}
			]
		},
		{
			"name":"Sphere",
			"primitives":[
				{
					"attributes":{
						"POSITION":5,
						"NORMAL":6,
						"TEXCOORD_0":7,
						"TANGENT":8
					},
					"indices":9,
					"material":0
				}
			]
		},
		{
			"extras":{
				"targetNames":[
					"Key 1",
					"Key 2"
				]
			},
			"name":"Suzanne.001",
			"primitives":[
				{
					"attributes":{
						"POSITION":10,
						"NORMAL":11,
						"TEXCOORD_0":12,
						"TANGENT":13
					},
					"indices":14,
					"material":1,
					"targets":[
						{
							"POSITION":15,
							"NORMAL":16
						},
						{
							"POSITION":17,
							"NORMAL":18
						}
					]
				}
			],
			"weights":[
				1,
				0
			]
		}
	],
	"accessors":[
		{
			"bufferView":0,
			"componentType":5126,
			"count":4,
			"max":[
				1,
				0,
				1
			],
			"min":[
				-1,
				0,
				-1
			],
			"type":"VEC3"
		},
		{
			"bufferView":1,
			"componentType":5126,
			"count":4,
			"type":"VEC3"
		},
		{
			"bufferView":2,
			"componentType":5126,
			"count":4,
			"type":"VEC2"
		},
		{
			"bufferView":3,
			"componentType":5126,
			"count":4,
			"type":"VEC4"
		},
		{
			"bufferView":4,
			"componentType":5123,
			"count":6,
			"type":"SCALAR"
		},
		{
			"bufferView":5,
			"componentType":5126,
			"count":1984,
			"max":[
				0.6579854488372803,
				3.802565336227417,
				1.1381357908248901
			],
			"min":[
				-1.3395417928695679,
				1.2443733215332031,
				-0.8588131070137024
			],
			"type":"VEC3"
		},
		{
			"bufferView":6,
			"componentType":5126,
			"count":1984,
			"type":"VEC3"
		},
		{
			"bufferView":7,
			"componentType":5126,
			"count":1984,
			"type":"VEC2"
		},
		{
			"bufferView":8,
			"componentType":5126,
			"count":1984,
			"type":"VEC4"
		},
		{
			"bufferView":9,
			"componentType":5123,
			"count":2880,
			"type":"SCALAR"
		},
		{
			"bufferView":10,
			"componentType":5126,
			"count":2448,
			"max":[
				1.3671875,
				0.984375,
				0.8515625
			],
			"min":[
				-1.3671875,
				-0.984375,
				-0.8515625
			],
			"type":"VEC3"
		},
		{
			"bufferView":11,
			"componentType":5126,
			"count":2448,
			"type":"VEC3"
		},
		{
			"bufferView":12,
			"componentType":5126,
			"count":2448,
			"type":"VEC2"
		},
		{
			"bufferView":13,
			"componentType":5126,
			"count":2448,
			"type":"VEC4"
		},
		{
			"bufferView":14,
			"componentType":5123,
			"count":3840,
			"type":"SCALAR"
		},
		{
			"componentType":5126,
			"count":2448,
			"max":[
				0,
				0,
				1.5199646949768066
			],
			"min":[
				-0.0443265438079834,
				-0.028578460216522217,
				0
			],
			"sparse":{
				"count":604,
				"indices":{
					"bufferView":15,
					"componentType":5123
				},
				"values":{
					"bufferView":16
				}
			},
			"type":"VEC3"
		},
		{
			"bufferView":17,
			"componentType":5126,
			"count":2448,
			"type":"VEC3"
		},
		{
			"componentType":5126,
			"count":2448,
			"max":[
				1.4636530876159668,
				0,
				5.309647560119629
			],
			"min":[
				0,
				-1.3796271085739136,
				0
			],
			"sparse":{
				"count":51,
				"indices":{
					"bufferView":18,
					"componentType":5123
				},
				"values":{
					"bufferView":19
				}
			},
			"type":"VEC3"
		},
		{
			"componentType":5126,
			"count":2448,
			"sparse":{
				"count":2002,
				"indices":{
					"bufferView":20,
					"componentType":5123
				},
				"values":{
					"bufferView":21
				}
			},
			"type":"VEC3"
		},
		{
			"bufferView":22,
			"componentType":5126,
			"count":1,
			"max":[
				0.041666666666666664
			],
			"min":[
				0.041666666666666664
			],
			"type":"SCALAR"
		},
		{
			"bufferView":23,
			"componentType":5126,
			"count":1,
			"type":"VEC3"
		},
		{
			"bufferView":24,
			"componentType":5126,
			"count":200,
			"max":[
				8.333333333333334
			],
			"min":[
				0.041666666666666664
			],
			"type":"SCALAR"
		},
		{
			"bufferView":25,
			"componentType":5126,
			"count":200,
			"type":"VEC3"
		},
		{
			"bufferView":26,
			"componentType":5126,
			"count":200,
			"type":"VEC3"
		}
	],
	"bufferViews":[
		{
			"buffer":0,
			"byteLength":48,
			"byteOffset":0,
			"target":34962
		},
		{
			"buffer":0,
			"byteLength":48,
			"byteOffset":48,
			"target":34962
		},
		{
			"buffer":0,
			"byteLength":32,
			"byteOffset":96,
			"target":34962
		},
		{
			"buffer":0,
			"byteLength":64,
			"byteOffset":128,
			"target":34962
		},
		{
			"buffer":0,
			"byteLength":12,
			"byteOffset":192,
			"target":34963
		},
		{
			"buffer":0,
			"byteLength":23808,
			"byteOffset":204,
			"target":34962
		},
		{
			"buffer":0,
			"byteLength":23808,
			"byteOffset":24012,
			"target":34962
		},
		{
			"buffer":0,
			"byteLength":15872,
			"byteOffset":47820,
			"target":34962
		},
		{
			"buffer":0,
			"byteLength":31744,
			"byteOffset":63692,
			"target":34962
		},
		{
			"buffer":0,
			"byteLength":5760,
			"byteOffset":95436,
			"target":34963
		},
		{
			"buffer":0,
			"byteLength":29376,
			"byteOffset":101196,
			"target":34962
		},
		{
			"buffer":0,
			"byteLength":29376,
			"byteOffset":130572,
			"target":34962
		},
		{
			"buffer":0,
			"byteLength":19584,
			"byteOffset":159948,
			"target":34962
		},
		{
			"buffer":0,
			"byteLength":39168,
			"byteOffset":179532,
			"target":34962
		},
		{
			"buffer":0,
			"byteLength":7680,
			"byteOffset":218700,
			"target":34963
		},
		{
			"buffer":0,
			"byteLength":1208,
			"byteOffset":226380
		},
		{
			"buffer":0,
			"byteLength":7248,
			"byteOffset":227588
		},
		{
			"buffer":0,
			"byteLength":29376,
			"byteOffset":234836,
			"target":34962
		},
		{
			"buffer":0,
			"byteLength":102,
			"byteOffset":264212
		},
		{
			"buffer":0,
			"byteLength":612,
			"byteOffset":264316
		},
		{
			"buffer":0,
			"byteLength":4004,
			"byteOffset":264928
		},
		{
			"buffer":0,
			"byteLength":24024,
			"byteOffset":268932
		},
		{
			"buffer":0,
			"byteLength":4,
			"byteOffset":292956
		},
		{
			"buffer":0,
			"byteLength":12,
			"byteOffset":292960
		},
		{
			"buffer":0,
			"byteLength":800,
			"byteOffset":292972
		},
		{
			"buffer":0,
			"byteLength":2400,
			"byteOffset":293772
		},
		{
			"buffer":0,
			"byteLength":2400,
			"byteOffset":296172
		}
	],
	"buffers":[
		{
			"byteLength":298572,
			"uri":"test-37de40cf965713d894682065ddc3bcf0.bin"
		}
	]
}
